<svg xmlns="http://www.w3.org/2000/svg"  viewBox="0 0 100 100" width="200px" height="200px"><path d="M 52 17 C 45.936593 17 41 21.936593 41 28 C 41 29.798052 41.437305 31.49814 42.205078 33 L 18 33 C 15.802666 33 14 34.802666 14 37 L 14 65 C 14 67.197334 15.802666 69 18 69 L 35.277344 69 C 35.562007 70.597018 36.056265 72.122252 36.753906 73.53125 C 39.531864 79.144553 45.323279 83 52 83 C 60.346484 83 67.28819 76.955587 68.716797 69.015625 C 70.500198 70.259846 72.66539 71 75 71 C 81.063407 71 86 66.063407 86 60 L 86 46 C 86 43.802666 84.197334 42 82 42 L 65 42 L 50 42 L 50 38.810547 C 50.650274 38.93011 51.317358 39 52 39 C 58.063407 39 63 34.063407 63 28 C 63 21.936593 58.063407 17 52 17 z M 52 19 C 56.982593 19 61 23.017407 61 28 C 61 32.982593 56.982593 37 52 37 C 51.30252 37 50.626111 36.920973 49.976562 36.771484 C 49.854551 34.681152 48.119141 33 46 33 L 44.521484 33 C 43.563098 31.569767 43 29.855525 43 28 C 43 23.017407 47.017407 19 52 19 z M 75 25 C 71.145849 25 68 28.145852 68 32 C 68 35.854148 71.145849 39 75 39 C 78.854151 39 82 35.854148 82 32 C 82 28.145852 78.854151 25 75 25 z M 75 27 C 77.773271 27 80 29.226731 80 32 C 80 34.773269 77.773271 37 75 37 C 72.226729 37 70 34.773269 70 32 C 70 29.226731 72.226729 27 75 27 z M 18 35 L 46 35 C 47.116666 35 48 35.883334 48 37 L 48 65 C 48 66.116666 47.116666 67 46 67 L 18 67 C 16.883334 67 16 66.116666 16 65 L 16 37 C 16 35.883334 16.883334 35 18 35 z M 23.5 41 A 0.50005 0.50005 0 0 0 23 41.5 L 23 45.5 A 0.50005 0.50005 0 0 0 23.5 46 L 29.5 46 L 29.5 60.5 A 0.50005 0.50005 0 0 0 30 61 L 34 61 A 0.50005 0.50005 0 0 0 34.5 60.5 L 34.5 46 L 40.5 46 A 0.50005 0.50005 0 0 0 41 45.5 L 41 41.5 A 0.50005 0.50005 0 0 0 40.5 41 L 23.5 41 z M 24 42 L 40 42 L 40 45 L 34 45 A 0.50005 0.50005 0 0 0 33.5 45.5 L 33.5 60 L 30.5 60 L 30.5 45.5 A 0.50005 0.50005 0 0 0 30 45 L 24 45 L 24 42 z M 50 44 L 65 44 C 66.116666 44 67 44.883334 67 46 L 67 66 C 67 74.296621 60.296621 81 52 81 C 46.092721 81 40.996917 77.593275 38.546875 72.642578 C 37.982752 71.503242 37.566403 70.280722 37.306641 69 L 46 69 C 48.197334 69 50 67.197334 50 65 L 50 44 z M 68.439453 44 L 82 44 C 83.116666 44 84 44.883334 84 46 L 84 60 C 84 64.982593 79.982593 69 75 69 C 72.67086 69 70.563302 68.115845 68.966797 66.669922 C 68.975579 66.445929 69 66.226116 69 66 L 69 46 C 69 45.269312 68.786352 44.59163 68.439453 44 z M 64.492188 45.992188 A 0.50005 0.50005 0 0 0 64 46.5 L 64 50.5 A 0.50005 0.50005 0 1 0 65 50.5 L 65 46.5 A 0.50005 0.50005 0 0 0 64.492188 45.992188 z M 64.492188 52.992188 A 0.50005 0.50005 0 0 0 64 53.5 L 64 66 C 64 68.267203 63.369772 70.385689 62.273438 72.195312 A 0.50005 0.50005 0 1 0 63.128906 72.712891 C 64.316571 70.752515 65 68.452797 65 66 L 65 53.5 A 0.50005 0.50005 0 0 0 64.492188 52.992188 z M 59.449219 75.539062 A 0.50005 0.50005 0 0 0 59.136719 75.640625 C 57.140375 77.122279 54.673526 78 52 78 C 51.51792 78 51.042562 77.970826 50.574219 77.916016 A 0.5003982 0.5003982 0 1 0 50.458984 78.910156 C 50.964641 78.969336 51.47808 79 52 79 C 54.892474 79 57.570765 78.04966 59.732422 76.445312 A 0.50005 0.50005 0 0 0 59.449219 75.539062 z"/></svg>