<svg xmlns="http://www.w3.org/2000/svg"  viewBox="0 0 64 64" width="128px" height="128px"><path fill="#9393d8" d="M54,18c0,1.06-0.33,2.05-0.89,2.86C52.2,22.15,50.7,23,49,23s-3.2-0.85-4.11-2.14	C44.33,20.05,44,19.06,44,18c0-2.76,2.24-5,5-5S54,15.24,54,18z"/><path fill="#a2a2ea" d="M54,18c0,1.06-0.33,2.05-0.89,2.86C51.88,20.49,51,19.35,51,18c0-1.1-0.9-2-2-2s-2,0.9-2,2	c0,1.35-0.88,2.49-2.11,2.86C44.33,20.05,44,19.06,44,18c0-2.76,2.24-5,5-5S54,15.24,54,18z"/><path fill="#9393d8" d="M49,48L49,48c4.971,0,9-4.029,9-9V29c0-1.105-0.895-2-2-2H40v12C40,43.971,44.029,48,49,48z"/><path fill="#a2a2ea" d="M33,56L33,56c7.18,0,13-5.82,13-13V29c0-1.105-0.895-2-2-2H22c-1.105,0-2,0.895-2,2v14	C20,50.18,25.82,56,33,56z"/><path fill="#a2a2ea" d="M40,16c0,1.05-0.23,2.04-0.65,2.93C38.25,21.33,35.82,23,33,23s-5.25-1.67-6.35-4.07	C26.23,18.04,26,17.05,26,16c0-3.87,3.13-7,7-7S40,12.13,40,16z"/><path fill="#9393d8" d="M30,45H8c-1.105,0-2-0.895-2-2V21c0-1.105,0.895-2,2-2h22c1.105,0,2,0.895,2,2v22	C32,44.105,31.105,45,30,45z"/><path fill="#a2a2ea" d="M29,23H9c-1.657,0-3-1.343-3-3v-1h26v1C32,21.657,30.657,23,29,23z"/><path fill="#8d6c9f" d="M49,24c-3.309,0-6-2.691-6-6s2.691-6,6-6s6,2.691,6,6S52.309,24,49,24z M49,14c-2.206,0-4,1.794-4,4	s1.794,4,4,4s4-1.794,4-4S51.206,14,49,14z"/><path fill="#8d6c9f" d="M33,57c-6.849,0-12.797-5.094-13.838-11.848c-0.084-0.546,0.29-1.057,0.836-1.141	c0.55-0.079,1.057,0.29,1.141,0.836C22.03,50.636,27.13,55,33,55c6.617,0,12-5.383,12-12V29c0-0.552-0.448-1-1-1H32	c-0.553,0-1-0.447-1-1s0.447-1,1-1h12c1.654,0,3,1.346,3,3v14C47,50.72,40.72,57,33,57z"/><path fill="#b6b6ef" d="M40,16c0,1.05-0.23,2.04-0.65,2.93C38.01,18.64,37,17.44,37,16c0-2.21-1.79-4-4-4s-4,1.79-4,4	c0,1.44-1.01,2.64-2.35,2.93C26.23,18.04,26,17.05,26,16c0-3.87,3.13-7,7-7S40,12.13,40,16z"/><path fill="#8d6c9f" d="M49,49c-1.422,0-2.805-0.299-4.111-0.889c-0.504-0.227-0.728-0.819-0.5-1.322	c0.227-0.502,0.815-0.729,1.322-0.5C46.757,46.761,47.864,47,49,47c4.411,0,8-3.589,8-8V29c0-0.552-0.448-1-1-1H40	c-0.553,0-1-0.447-1-1s0.447-1,1-1h16c1.654,0,3,1.346,3,3v10C59,44.514,54.514,49,49,49z"/><path fill="#8d6c9f" d="M33,24c-0.451,0-0.839-0.032-1.186-0.098c-0.543-0.103-0.899-0.625-0.797-1.168	s0.628-0.898,1.168-0.797C32.409,21.979,32.675,22,33,22c3.309,0,6-2.691,6-6s-2.691-6-6-6s-6,2.691-6,6	c0,0.904,0.195,1.768,0.58,2.565c0.24,0.497,0.032,1.095-0.466,1.335c-0.496,0.241-1.096,0.032-1.335-0.466	C25.262,18.364,25,17.208,25,16c0-4.411,3.589-8,8-8s8,3.589,8,8S37.411,24,33,24z"/><path fill="#fff" d="M25,27H13c-0.553,0-1-0.447-1-1s0.447-1,1-1h12c0.553,0,1,0.447,1,1S25.553,27,25,27z"/><path fill="#fff" d="M19,41c-0.553,0-1-0.447-1-1V26c0-0.553,0.447-1,1-1s1,0.447,1,1v14C20,40.553,19.553,41,19,41z"/><path fill="#8d6c9f" d="M30,46H8c-1.654,0-3-1.346-3-3V21c0-1.654,1.346-3,3-3h22c1.654,0,3,1.346,3,3v22	C33,44.654,31.654,46,30,46z M8,20c-0.552,0-1,0.448-1,1v22c0,0.552,0.448,1,1,1h22c0.552,0,1-0.448,1-1V21c0-0.552-0.448-1-1-1H8z"/><path fill="#8d6c9f" d="M6,15c-0.553,0-1-0.447-1-1v-2c0-0.553,0.447-1,1-1s1,0.447,1,1v2C7,14.553,6.553,15,6,15z"/><path fill="#8d6c9f" d="M11.025,15c-0.553,0-1-0.447-1-1v-2c0-0.553,0.447-1,1-1s1,0.447,1,1v2 C12.025,14.553,11.578,15,11.025,15z"/><path fill="#8d6c9f" d="M16,15c-0.553,0-1-0.447-1-1v-2c0-0.553,0.447-1,1-1s1,0.447,1,1v2C17,14.553,16.553,15,16,15z"/><path fill="#8d6c9f" d="M21,15c-0.553,0-1-0.447-1-1v-2c0-0.553,0.447-1,1-1s1,0.447,1,1v2C22,14.553,21.553,15,21,15z"/><g><path fill="#8d6c9f" d="M6,53c-0.553,0-1-0.447-1-1v-2c0-0.553,0.447-1,1-1s1,0.447,1,1v2C7,52.553,6.553,53,6,53z"/><path fill="#8d6c9f" d="M11.025,53c-0.553,0-1-0.447-1-1v-2c0-0.553,0.447-1,1-1s1,0.447,1,1v2 C12.025,52.553,11.578,53,11.025,53z"/><path fill="#8d6c9f" d="M16,53c-0.553,0-1-0.447-1-1v-2c0-0.553,0.447-1,1-1s1,0.447,1,1v2C17,52.553,16.553,53,16,53z"/></g></svg>